# xmcd
#
# Track frame offsets: 
#        150
#        12664
#        28785
#        46013
#        64102
#        79147
#        93524
#        111524
#        121144
#        141569
#        154855
#        165263
#        187341
#        202916
#        211717
#        226156
#        240556
#        255803
#        275116
#        287020
#
# Disc length: 4019 seconds
#
# Revision: 1
# Processed by: cddbd v1.5.2PL0 Copyright (c) Steve Scherf et al.
# Submitted via: ExactAudioCopyFreeDBPlugin 1.0
#
DISCID=170fb114
DTITLE=RB - RB Nr. 1 Vol. 2 Rock 'n' Roll
DYEAR=2006
DGENRE=Rap
TTITLE0=Staiger and Sil Yan - Intro (Weltmeister der Herzen)
TTITLE1=Catee, Big Derill Mack and Rufmord - Bounce
TTITLE2=K.I.Z. feat. Rhymin Simon - Rosenbusch
TTITLE3=Catee and Big Derill Mack - In der Kneipe
TTITLE4=Jack Orsen - Lasst uns beten
TTITLE5=Catee, Big Derril Mack, Zett and Heinz - Run Up
TTITLE6=K.I.Z. - Hölle
TTITLE7=M.O.R. - Kult wie Alf
TTITLE8=H.A.C.K. - Waaahnsinn
TTITLE9=TUA - Trampel dich platt
TTITLE10=Big Derril Mack, Tarek and Zett - Abendmahl
TTITLE11=Catee, Zett, Big Derril Mack and Staiger - Kampfgeist
TTITLE12=K.I.Z. - Randale
TTITLE13=Big Derril Mack and Rhymin Simon - Nein ! ! !
TTITLE14=Tarek and Massimo - Angst
TTITLE15=M.O.R. - Die Besten im Westen
TTITLE16=Jack Orsen, Tarek and Tony Tone - Kämpf
TTITLE17=Big Derril Mack and Zett - Wir
TTITLE18=Staiger - Jeder Job
TTITLE19=Nico aka Euro8000 - Kalifornien
EXTD=
EXTT0=
EXTT1=
EXTT2=
EXTT3=
EXTT4=
EXTT5=
EXTT6=
EXTT7=
EXTT8=
EXTT9=
EXTT10=
EXTT11=
EXTT12=
EXTT13=
EXTT14=
EXTT15=
EXTT16=
EXTT17=
EXTT18=
EXTT19=
PLAYORDER=
